
<svg xmlns="http://www.w3.org/2000/svg" style="display:none">
  <symbol id="pin" viewBox="0 0 24 24" fill="none" stroke="currentColor" stroke-width="1.6" stroke-linecap="round" stroke-linejoin="round">
    <path d="M12 21s-7-7.2-7-12a7 7 0 1 1 14 0c0 4.8-7 12-7 12Z"></path>
    <circle cx="12" cy="9" r="2.5"></circle>
  </symbol>
  <symbol id="rota" viewBox="0 0 24 24" fill="none" stroke="currentColor" stroke-width="1.6" stroke-linecap="round" stroke-linejoin="round">
    <circle cx="5" cy="6" r="2"></circle>
    <circle cx="19" cy="18" r="2"></circle>
    <path d="M5 8v3a4 4 0 0 0 4 4h6a4 4 0 0 1 4 4v-3" stroke-dasharray="2 2.2"></path>
  </symbol>
  <symbol id="carimbo" viewBox="0 0 24 24" fill="none" stroke="currentColor" stroke-width="1.6" stroke-linecap="round" stroke-linejoin="round">
    <circle cx="12" cy="10" r="6"></circle>
    <path d="M12 16v3M9 19h6M8 22h8"></path>
  </symbol>
  <symbol id="glass" viewBox="0 0 24 24" fill="none" stroke="currentColor" stroke-width="1.6" stroke-linecap="round" stroke-linejoin="round">
    <path d="M6 4h12l-1.3 12a2 2 0 0 1-2 1.8H9.3a2 2 0 0 1-2-1.8L6 4Z"></path>
    <path d="M7 9h10"></path>
  </symbol>
  <symbol id="search" viewBox="0 0 24 24" fill="none" stroke="currentColor" stroke-width="1.6" stroke-linecap="round" stroke-linejoin="round">
    <circle cx="11" cy="11" r="6.5"></circle>
    <path d="m20 20-3.8-3.8"></path>
  </symbol>
  <symbol id="filter" viewBox="0 0 24 24" fill="none" stroke="currentColor" stroke-width="1.6" stroke-linecap="round" stroke-linejoin="round">
    <path d="M4 6h16M7 12h10M10 18h4"></path>
  </symbol>
  <symbol id="user" viewBox="0 0 24 24" fill="none" stroke="currentColor" stroke-width="1.6" stroke-linecap="round" stroke-linejoin="round">
    <circle cx="12" cy="8.5" r="3.5"></circle>
    <path d="M5 20c.8-3.6 3.7-5.5 7-5.5s6.2 1.9 7 5.5"></path>
  </symbol>
  <symbol id="home" viewBox="0 0 24 24" fill="none" stroke="currentColor" stroke-width="1.6" stroke-linecap="round" stroke-linejoin="round">
    <path d="M4 11 12 4l8 7"></path>
    <path d="M6 10v9h12v-9"></path>
  </symbol>
  <symbol id="map" viewBox="0 0 24 24" fill="none" stroke="currentColor" stroke-width="1.6" stroke-linecap="round" stroke-linejoin="round">
    <path d="M9 4 4 6v14l5-2 6 2 5-2V4l-5 2-6-2Z"></path>
    <path d="M9 4v14M15 6v14"></path>
  </symbol>
  <symbol id="heart" viewBox="0 0 24 24" fill="none" stroke="currentColor" stroke-width="1.6" stroke-linecap="round" stroke-linejoin="round">
    <path d="M12 20s-7-4.3-7-10a4 4 0 0 1 7-2.6A4 4 0 0 1 19 10c0 5.7-7 10-7 10Z"></path>
  </symbol>
  <symbol id="plus" viewBox="0 0 24 24" fill="none" stroke="currentColor" stroke-width="1.8" stroke-linecap="round">
    <path d="M12 5v14M5 12h14"></path>
  </symbol>
  <symbol id="arrow-right" viewBox="0 0 24 24" fill="none" stroke="currentColor" stroke-width="1.6" stroke-linecap="round" stroke-linejoin="round">
    <path d="M5 12h14M13 6l6 6-6 6"></path>
  </symbol>
  <symbol id="clock" viewBox="0 0 24 24" fill="none" stroke="currentColor" stroke-width="1.6" stroke-linecap="round" stroke-linejoin="round">
    <circle cx="12" cy="12" r="8"></circle>
    <path d="M12 7v5l3 2"></path>
  </symbol>
  <symbol id="dot" viewBox="0 0 24 24" fill="currentColor">
    <circle cx="12" cy="12" r="3"></circle>
  </symbol>
  <symbol id="star" viewBox="0 0 24 24" fill="none" stroke="currentColor" stroke-width="1.6" stroke-linejoin="round">
    <path d="M12 4.5 14.3 9.6l5.6.5-4.2 3.8 1.2 5.4L12 16.9 7.1 19.3l1.2-5.4L4 10.1l5.6-.5L12 4.5Z"></path>
  </symbol>
  
  <symbol id="gole-filled" viewBox="0 0 24 24" fill="currentColor">
    <path d="M7 5h10l-1 13a2 2 0 0 1-2 1.8h-4a2 2 0 0 1-2-1.8L7 5Z"></path>
    <path d="M7.6 9h8.8" stroke="#FBF6EC" stroke-width="1.4"></path>
  </symbol>
  <symbol id="gole-empty" viewBox="0 0 24 24" fill="none" stroke="currentColor" stroke-width="1.6" stroke-linejoin="round">
    <path d="M7 5h10l-1 13a2 2 0 0 1-2 1.8h-4a2 2 0 0 1-2-1.8L7 5Z"></path>
  </symbol>
</svg>