<svg xmlns="http://www.w3.org/2000/svg" width="240" height="240" viewBox="0 0 240 240">
  <rect width="240" height="240" fill="transparent"></rect>
  <g fill="#4A140F" opacity="0.08">
    
    <circle cx="10" cy="14" r="0.8"></circle><circle cx="33" cy="7" r="0.6"></circle><circle cx="58" cy="22" r="0.9"></circle><circle cx="82" cy="11" r="0.5"></circle><circle cx="104" cy="19" r="0.7"></circle><circle cx="128" cy="4" r="0.9"></circle><circle cx="156" cy="18" r="0.6"></circle><circle cx="182" cy="9" r="0.8"></circle><circle cx="207" cy="15" r="0.7"></circle><circle cx="228" cy="24" r="0.5"></circle>
    <circle cx="18" cy="42" r="0.9"></circle><circle cx="44" cy="56" r="0.6"></circle><circle cx="70" cy="48" r="0.8"></circle><circle cx="94" cy="62" r="0.5"></circle><circle cx="118" cy="52" r="0.7"></circle><circle cx="140" cy="46" r="0.9"></circle><circle cx="168" cy="60" r="0.6"></circle><circle cx="192" cy="48" r="0.8"></circle><circle cx="216" cy="56" r="0.7"></circle>
    <circle cx="6" cy="82" r="0.7"></circle><circle cx="28" cy="92" r="0.9"></circle><circle cx="52" cy="78" r="0.5"></circle><circle cx="76" cy="96" r="0.8"></circle><circle cx="100" cy="88" r="0.6"></circle><circle cx="124" cy="80" r="0.9"></circle><circle cx="146" cy="98" r="0.7"></circle><circle cx="172" cy="86" r="0.5"></circle><circle cx="198" cy="92" r="0.8"></circle><circle cx="222" cy="80" r="0.6"></circle>
    <circle cx="14" cy="118" r="0.8"></circle><circle cx="38" cy="108" r="0.6"></circle><circle cx="62" cy="122" r="0.9"></circle><circle cx="88" cy="114" r="0.5"></circle><circle cx="112" cy="126" r="0.7"></circle><circle cx="136" cy="116" r="0.8"></circle><circle cx="160" cy="110" r="0.6"></circle><circle cx="184" cy="124" r="0.9"></circle><circle cx="210" cy="114" r="0.5"></circle><circle cx="232" cy="120" r="0.7"></circle>
    <circle cx="8" cy="148" r="0.6"></circle><circle cx="32" cy="158" r="0.9"></circle><circle cx="56" cy="142" r="0.7"></circle><circle cx="80" cy="156" r="0.5"></circle><circle cx="106" cy="150" r="0.8"></circle><circle cx="130" cy="160" r="0.6"></circle><circle cx="154" cy="144" r="0.9"></circle><circle cx="178" cy="156" r="0.7"></circle><circle cx="204" cy="146" r="0.5"></circle><circle cx="226" cy="158" r="0.8"></circle>
    <circle cx="20" cy="188" r="0.9"></circle><circle cx="46" cy="178" r="0.5"></circle><circle cx="72" cy="194" r="0.7"></circle><circle cx="96" cy="184" r="0.8"></circle><circle cx="120" cy="190" r="0.6"></circle><circle cx="144" cy="182" r="0.9"></circle><circle cx="170" cy="196" r="0.5"></circle><circle cx="194" cy="184" r="0.7"></circle><circle cx="218" cy="192" r="0.8"></circle>
    <circle cx="4" cy="218" r="0.7"></circle><circle cx="30" cy="226" r="0.9"></circle><circle cx="54" cy="214" r="0.5"></circle><circle cx="78" cy="228" r="0.8"></circle><circle cx="102" cy="220" r="0.6"></circle><circle cx="126" cy="230" r="0.9"></circle><circle cx="150" cy="216" r="0.7"></circle><circle cx="174" cy="228" r="0.5"></circle><circle cx="200" cy="222" r="0.8"></circle><circle cx="224" cy="232" r="0.6"></circle>
  </g>
</svg>